<?xml version="1.0" encoding="utf-8"?>
<!-- Generator: Adobe Illustrator 27.8.1, SVG Export Plug-In . SVG Version: 6.00 Build 0)  -->
<svg version="1.1" id="Laag_1" xmlns="http://www.w3.org/2000/svg" xmlns:xlink="http://www.w3.org/1999/xlink" x="0px" y="0px"
	 viewBox="0 0 176.5 218.4" style="enable-background:new 0 0 176.5 218.4;" xml:space="preserve">
<style type="text/css">
	.st0{fill:#E30613;}
	.st1{fill:none;stroke:#000000;stroke-miterlimit:10;}
</style>
<rect class="st0" width="176.5" height="218.4"/>
<g>
	<g>
		<path d="M90.9,198.7c-7.2-8.5-14.4-16.9-21.6-25.4c-0.9-1-2.6-0.9-3.5,0c-1,1-0.9,2.5,0,3.5c7.2,8.5,14.4,16.9,21.6,25.4
			c0.9,1,2.6,0.9,3.5,0C92,201.2,91.8,199.7,90.9,198.7L90.9,198.7z"/>
	</g>
</g>
<g>
	<g>
		<path d="M69,172.8c-9-14.6-18.1-29.2-27.1-43.8c-1.7-2.7-6-0.2-4.3,2.5c9,14.6,18.1,29.2,27.1,43.8
			C66.3,178.1,70.7,175.6,69,172.8L69,172.8z"/>
	</g>
</g>
<g>
	<g>
		<path d="M41.6,128.9c-4.2-8-7.7-16.3-10.7-24.8c-0.4-1.3-1.7-2.1-3.1-1.7c-1.2,0.3-2.2,1.8-1.7,3.1c3.1,8.9,6.8,17.6,11.2,26
			C38.7,134.3,43,131.8,41.6,128.9L41.6,128.9z"/>
	</g>
</g>
<g>
	<g>
		<path d="M31.4,103.6c-3.4-10.1-5-20.7-4.7-31.4c0.1-3.2-4.9-3.2-5,0C21.3,83.3,23,94.5,26.5,105C27.6,108,32.4,106.7,31.4,103.6
			L31.4,103.6z"/>
	</g>
</g>
<g>
	<g>
		<path d="M65.8,18.9c-9,0.9-16.5,7.1-22.7,13.2c-6.2,6.2-11.5,13.4-15.4,21.3c-1.4,2.9,2.9,5.4,4.3,2.5c3.6-7.3,8.3-13.9,14-19.7
			c2.8-2.8,5.8-5.5,9-7.8c3.2-2.2,6.8-4.2,10.7-4.6c1.3-0.1,2.5-1,2.5-2.5C68.3,20.1,67.1,18.7,65.8,18.9L65.8,18.9z"/>
	</g>
</g>
<g>
	<g>
		<path d="M27.7,53.5c-4.7,7.2-7,16-6.3,24.6c0.1,1.3,1.1,2.5,2.5,2.5c1.3,0,2.6-1.1,2.5-2.5C25.8,70.3,27.7,62.6,32,56
			C33.8,53.3,29.5,50.8,27.7,53.5L27.7,53.5z"/>
	</g>
</g>
<g>
	<g>
		<path d="M67.2,23.8c8.8-3.2,18.1-4.3,27.4-3.1c1.3,0.2,2.5-1.3,2.5-2.5c0-1.5-1.2-2.3-2.5-2.5C85,14.5,75,15.6,65.9,19
			c-1.3,0.5-2.1,1.7-1.7,3.1C64.5,23.3,66,24.3,67.2,23.8L67.2,23.8z"/>
	</g>
</g>
<g>
	<g>
		<path d="M92.5,19.9c5.2,0,10.4,1.1,15.2,3.1c1.2,0.5,2.7,0.4,3.4-0.9c0.6-1.1,0.3-2.9-0.9-3.4c-5.6-2.5-11.6-3.8-17.7-3.8
			c-1.3,0-2.6,1.2-2.5,2.5C90.1,18.8,91.1,19.9,92.5,19.9L92.5,19.9z"/>
	</g>
</g>
<g>
	<g>
		<path d="M109.1,23.6c9.2,2.8,17.4,8.1,23.9,15.1c2.2,2.4,5.7-1.2,3.5-3.5c-7.1-7.7-16.1-13.3-26.1-16.4
			C107.4,17.8,106.1,22.6,109.1,23.6L109.1,23.6z"/>
	</g>
</g>
<g>
	<g>
		<path d="M133.8,39.4c4.8,3.9,7.5,9.6,10.2,15.1c2.9,5.7,6.9,11.7,6.5,18.4c-0.2,3.2,4.8,3.2,5,0c0.5-7.5-3.8-14.1-7-20.5
			c-3-5.9-5.9-12.2-11.2-16.4c-1-0.9-2.5-1-3.5,0C132.9,36.7,132.7,38.5,133.8,39.4L133.8,39.4z"/>
	</g>
</g>
<g>
	<g>
		<path d="M150.2,73.4c1.1,11.2-0.1,22.4-3.4,33.1c-1,3.1,3.9,4.4,4.8,1.3c3.4-11.1,4.7-22.9,3.6-34.5c-0.1-1.3-1.1-2.5-2.5-2.5
			C151.5,70.9,150.1,72.1,150.2,73.4L150.2,73.4z"/>
	</g>
</g>
<g>
	<g>
		<path d="M147.3,106.9c-4.6,10.1-9.2,20.2-13.8,30.3c-0.6,1.2-0.4,2.7,0.9,3.4c1.1,0.6,2.9,0.3,3.4-0.9
			c4.6-10.1,9.2-20.2,13.8-30.3c0.6-1.2,0.4-2.7-0.9-3.4C149.7,105.4,147.9,105.7,147.3,106.9L147.3,106.9z"/>
	</g>
</g>
<g>
	<g>
		<path d="M133.1,138.3c-5.6,8.6-11.2,17.3-16.9,25.9c-1.8,2.7,2.6,5.2,4.3,2.5c5.6-8.6,11.2-17.3,16.9-25.9
			C139.2,138.1,134.9,135.6,133.1,138.3L133.1,138.3z"/>
	</g>
</g>
<g>
	<g>
		<path d="M115.8,165.6c-7.1,9.6-14.3,19.2-21.4,28.8c-0.8,1.1-0.2,2.8,0.9,3.4c1.3,0.7,2.6,0.2,3.4-0.9
			c7.1-9.6,14.3-19.2,21.4-28.8c0.8-1.1,0.2-2.8-0.9-3.4C117.9,164,116.6,164.5,115.8,165.6L115.8,165.6z"/>
	</g>
</g>
<g>
	<g>
		<path d="M95.3,193.1c-2.7,2.4-5.4,4.9-8.1,7.3c-1,0.9-1,2.7,0,3.5c1,1,2.5,0.9,3.5,0c2.7-2.4,5.4-4.9,8.1-7.3c1-0.9,1-2.7,0-3.5
			C97.8,192.2,96.3,192.2,95.3,193.1L95.3,193.1z"/>
	</g>
</g>
<circle class="st1" cx="88.9" cy="81.2" r="23.1"/>
<g>
	<g>
		<path d="M143.1,91.9c3.2,0,3.2-5,0-5C139.9,86.9,139.8,91.9,143.1,91.9L143.1,91.9z"/>
	</g>
</g>
<g>
	<g>
		<path d="M116.2,74.1c-3.3,13-6.8,26-12,38.3c0.6-1.4,1.2-2.8,1.8-4.2c-2.5,6-5.5,11.8-9,17.3c-3.5,5.6-7.4,11-11.2,16.3
			c-1.3,2-2,4.2-2.1,6.5c-0.5,2.3-0.4,4.7,0.3,7c1.1,4.1,4.3,8.5,8,10.5c4.1,2.1,9,3.2,13.5,1.8c1.4-0.6,2.8-1.2,4.2-1.8
			c2.6-1.6,4.7-3.6,6.3-6.3c6.2-8.5,12.3-17.1,17-26.6c5.2-10.4,9.2-21.4,12.4-32.5c1.6-5.6,3.1-11.3,4.6-17
			c1.1-4.5,0.6-9.5-1.8-13.5c-2.1-3.6-6.3-7.1-10.5-8c-4.5-1-9.5-0.8-13.5,1.8C120.5,66.1,117.4,69.6,116.2,74.1L116.2,74.1z"/>
	</g>
</g>
<g>
	<g>
		<path d="M88.9,161c-3,6.1-6,12.2-8.9,18.3c-0.9,1.4-1.4,3-1.5,4.6c-0.4,1.7-0.3,3.3,0.2,5c0.8,2.9,3,6,5.7,7.5
			c2.9,1.5,6.4,2.3,9.6,1.3c3-1,6.1-2.8,7.5-5.7c3-6.1,6-12.2,8.9-18.3c0.9-1.4,1.4-3,1.5-4.6c0.4-1.7,0.3-3.3-0.2-5
			c-0.8-2.9-3-6-5.7-7.5c-2.9-1.5-6.4-2.3-9.6-1.3C93.4,156.2,90.3,158.1,88.9,161L88.9,161z"/>
	</g>
</g>
<g>
	<g>
		<path d="M97.8,172.1c-2.8-3.1-5.5-6.3-8-9.6c0.7,0.8,1.3,1.7,2,2.5c-8-10.4-14.6-21.7-19.7-33.8c0.4,1,0.8,2,1.3,3
			c-0.8-1.9-1.5-3.7-2.2-5.6c-1.2-3.1-2.8-5.7-5.7-7.5c-2.7-1.6-6.6-2.2-9.6-1.3c-3,1-5.9,2.9-7.5,5.7c-1.5,2.8-2.4,6.5-1.3,9.6
			c5.7,15.2,13.3,29.5,23.2,42.4c3.2,4.2,6.5,8.2,10,12.1c2.1,2.3,5.8,3.7,8.8,3.7c3.1,0,6.7-1.4,8.8-3.7c2.2-2.4,3.8-5.5,3.7-8.8
			C101.3,177.6,100.1,174.7,97.8,172.1L97.8,172.1z"/>
	</g>
</g>
<g>
	<g>
		<path d="M55.8,133.9c3.2,0,6.6-1.4,8.8-3.7c2.2-2.2,3.8-5.7,3.7-8.8c-0.1-3.2-1.2-6.6-3.7-8.8c-2.4-2.2-5.5-3.7-8.8-3.7
			c-3.2,0-6.6,1.4-8.8,3.7c-2.2,2.2-3.8,5.7-3.7,8.8c0.1,3.2,1.2,6.6,3.7,8.8C49.4,132.5,52.4,133.9,55.8,133.9L55.8,133.9z"/>
	</g>
</g>
<g>
	<g>
		<path d="M61.5,117.4c-0.5-0.1-1-0.3-1.4-0.4c1,0.4,2,0.8,3,1.3c-0.8-0.4-1.6-0.8-2.3-1.3c0.8,0.7,1.7,1.3,2.5,2
			c-0.9-0.7-1.7-1.5-2.4-2.4c0.7,0.8,1.3,1.7,2,2.5c-1.1-1.5-2-3.2-2.7-4.9c0.4,1,0.8,2,1.3,3c-2-4.8-3.7-9.7-5.5-14.6
			c-1.9-5-3.7-10-5.6-15c-1.2-3.1-2.8-5.7-5.7-7.5c-2.7-1.6-6.6-2.2-9.6-1.3c-3,1-5.9,2.9-7.5,5.7c-1.5,2.8-2.4,6.5-1.3,9.6
			c2.9,7.8,5.9,15.7,8.8,23.5c1.6,4.4,3,9,5.6,12.9c3.4,5.1,8.2,9.5,14.3,10.9c3.2,0.8,6.7,0.4,9.6-1.3c2.6-1.5,5.1-4.5,5.7-7.5
			c0.7-3.2,0.6-6.8-1.3-9.6C67.2,120.5,64.7,118.2,61.5,117.4L61.5,117.4z"/>
	</g>
</g>
<g>
	<g>
		<path d="M50.3,87.2c-0.3-1.2-0.5-2.4-0.6-3.6c0.1,1.1,0.3,2.2,0.4,3.3c-0.5-3.6-0.4-7.3,0-10.9c-0.1,1.1-0.3,2.2-0.4,3.3
			c0.5-3.7,1.5-7.4,3-10.9c-0.4,1-0.8,2-1.3,3c1.3-3,2.9-5.8,4.8-8.4c1.8-2.4,2-6.8,1.3-9.6c-0.8-2.9-3-6-5.7-7.5
			c-2.9-1.5-6.4-2.3-9.6-1.3c-1,0.4-2,0.8-3,1.3c-1.9,1.1-3.4,2.6-4.5,4.5c-1.9,2.5-3.4,5.2-4.7,8c-1.6,3.7-3.1,7.3-3.9,11.2
			c-1.7,8.1-1.7,16,0.1,24.1c0.7,3,3.2,6,5.7,7.5c2.7,1.6,6.6,2.2,9.6,1.3c3-1,5.9-2.9,7.5-5.7C50.7,93.8,51.1,90.6,50.3,87.2
			L50.3,87.2z"/>
	</g>
</g>
<g>
	<g>
		<path d="M54.2,65.6c3-3.9,6.1-7.8,9.1-11.6c1.2-1.1,2.1-2.5,2.6-4c0.8-1.5,1.1-3.1,1.1-4.8c0.1-1.7-0.3-3.3-1.1-4.8
			c-0.5-1.5-1.4-2.9-2.6-4c-0.8-0.7-1.7-1.3-2.5-2c-1.9-1.1-4.1-1.7-6.3-1.7c-1.1,0.1-2.2,0.3-3.3,0.4c-2.1,0.6-4,1.7-5.5,3.2
			c-3,3.9-6.1,7.8-9.1,11.6c-1.2,1.1-2.1,2.5-2.6,4c-0.8,1.5-1.1,3.1-1.1,4.8c-0.1,1.7,0.3,3.3,1.1,4.8c0.5,1.5,1.4,2.9,2.6,4
			c0.8,0.7,1.7,1.3,2.5,2c1.9,1.1,4.1,1.7,6.3,1.7c1.1-0.1,2.2-0.3,3.3-0.4C50.8,68.2,52.6,67.1,54.2,65.6L54.2,65.6z"/>
	</g>
</g>
<g>
	<g>
		<path d="M54.8,58.9c2.2-2.4,4.6-4.7,7.2-6.7c-0.8,0.7-1.7,1.3-2.5,2c3.5-2.7,7.3-4.9,11.3-6.8c4.1-2,8.3-3.8,12.2-6.1
			c2.7-1.7,4.9-4.4,5.7-7.5c0.8-3,0.5-7-1.3-9.6c-1.7-2.7-4.3-5-7.5-5.7c-3.2-0.7-6.7-0.5-9.6,1.3c-5.4,3.4-11.5,5.5-17,8.6
			c-6,3.4-11.6,7.8-16.2,12.9c-2.2,2.5-3.7,5.5-3.7,8.8c0,3.1,1.4,6.7,3.7,8.8c2.4,2.2,5.5,3.8,8.8,3.7
			C49.2,62.4,52.6,61.3,54.8,58.9L54.8,58.9z"/>
	</g>
</g>
<g>
	<g>
		<path d="M80.2,43.5c3.1-0.7,6.3-1.4,9.5-1.8c-1.1,0.1-2.2,0.3-3.3,0.4c5-0.7,10-0.8,15-0.2c-1.1-0.1-2.2-0.3-3.3-0.4
			c3.3,0.5,6.6,1.3,9.7,2.6c-1-0.4-2-0.8-3-1.3c2.9,1.2,5.6,2.8,8.2,4.8c-0.8-0.7-1.7-1.3-2.5-2c2.4,1.9,4.5,4,6.4,6.4
			c-0.7-0.8-1.3-1.7-2-2.5c0.3,0.4,0.6,0.8,0.9,1.3c1.9,2.7,4.1,4.8,7.5,5.7c3,0.8,7,0.5,9.6-1.3c2.7-1.7,5-4.3,5.7-7.5
			c0.7-3.1,0.7-6.9-1.3-9.6c-5.1-7.1-11.6-13.2-19.7-16.8c-2.5-1.1-4.9-2.1-7.5-2.9c-2.4-0.7-4.8-1-7.2-1.4
			c-4.4-0.6-8.8-0.8-13.3-0.4c-5.5,0.5-10.9,1.4-16.2,2.6c-3,0.7-5.9,3.1-7.5,5.7c-1.6,2.7-2.2,6.6-1.3,9.6
			C67,41.4,73.4,45.1,80.2,43.5L80.2,43.5z"/>
	</g>
</g>
<g>
	<g>
		<path d="M117.5,55c2.4,3.5,4.4,7.2,6.1,11.1c-0.4-1-0.8-2-1.3-3c2.1,5.1,3.6,10.5,4.3,16c-0.1-1.1-0.3-2.2-0.4-3.3
			c0.9,7,0.7,14-0.2,21c0.1-1.1,0.3-2.2,0.4-3.3c-0.9,6.9-2.6,13.7-4.7,20.3c-1,3-0.3,7,1.3,9.6c1.5,2.6,4.5,5.1,7.5,5.7
			c3.2,0.7,6.8,0.6,9.6-1.3c2.8-1.8,4.7-4.3,5.7-7.5c3.3-10.1,5.4-20.7,5.9-31.2c0.5-10.3-0.8-21-4.5-30.6
			c-2.2-5.7-4.7-11.1-8.1-16.1c-1.9-2.7-4.2-4.8-7.5-5.7c-3-0.8-7-0.5-9.6,1.3c-2.7,1.7-5,4.3-5.7,7.5
			C115.5,48.6,115.6,52.3,117.5,55L117.5,55z"/>
	</g>
</g>
<g>
	<g>
		<path d="M117.1,120.5c-6.3,11.2-12.7,22.3-19,33.5c-1.6,2.8-2.1,6.5-1.3,9.6c0.8,2.9,3,6,5.7,7.5c2.9,1.5,6.4,2.3,9.6,1.3
			c3.1-1,5.8-2.9,7.5-5.7c6.3-11.2,12.7-22.3,19-33.5c1.6-2.8,2.1-6.5,1.3-9.6c-0.8-2.9-3-6-5.7-7.5c-2.9-1.5-6.4-2.3-9.6-1.3
			C121.5,115.8,118.8,117.6,117.1,120.5L117.1,120.5z"/>
	</g>
</g>
<g>
	<g>
		<path d="M96.5,148.8c0.2-2.3-0.2-4.6-0.7-6.8c-0.5-2.2-1.5-4.3-2.5-6.2c-2.3-4-5.5-7-9.1-9.7c-1.1-0.8-2.3-1.5-3.5-2
			c-2.2-1-4.5-2-6.9-2.7c-3-0.9-6-1.4-9-1.8c2.5,6.1,5,12.2,7.5,18.4c1.4-2.7,2.6-5.6,3-8.7c0.3-2,0.6-4.1,0.6-6.1
			c0-2.1-0.4-4.2-0.7-6.3c-0.5-3-1.7-6-3.1-8.6c-1.4-2.7-3.4-5.3-5.7-7.4c-5,6.5-10.1,13.1-15.1,19.6c0.6,0.4,1.2,0.9,1.7,1.3
			c-0.8-0.7-1.7-1.3-2.5-2c7.7,6,14.7,12.9,20.7,20.6c-0.7-0.8-1.3-1.7-2-2.5c3,3.9,5.7,8.4,9.4,11.7c5.9,5.2,13.1,7.9,21,6.4
			c6-1.2,11.6-5.9,14.2-11.5c1.8-3.9,2.5-6.9,2.9-11.2c0.2-2.3,0.1-4.7-0.1-7c-0.2-2.8-0.9-5.3-2.7-7.6c-1.6-2.1-3.8-3.8-6.5-4.5
			c-6.5-1.7-13-3.5-19.4-5.4c-6.1-1.8-12.4-3.5-18.3-6c1,0.4,2,0.8,3,1.3c-2.2-1-4.4-2.1-6.3-3.6c0.8,0.7,1.7,1.3,2.5,2
			c-1.3-1-2.5-2.2-3.6-3.5c0.7,0.8,1.3,1.7,2,2.5c-0.8-1-1.4-2.1-2-3.3c0.4,1,0.8,2,1.3,3c-0.4-1.1-0.8-2.1-0.9-3.3
			c0.1,1.1,0.3,2.2,0.4,3.3c-0.1-0.8-0.1-1.5-0.1-2.3c0.1-3.1-1.5-6.6-3.7-8.8c-2.2-2.2-5.7-3.8-8.8-3.7c-3.2,0.1-6.6,1.2-8.8,3.7
			c-2.3,2.5-3.5,5.4-3.7,8.8c-0.4,11.4,7.8,21.5,17.7,26.1c8.7,4.1,18.1,6.6,27.3,9.2c4.9,1.4,9.8,2.7,14.8,4c-3.1-4-6.1-8-9.2-12.1
			c0.2,2.6,0.3,5.3,0,7.9c0.1-1.1,0.3-2.2,0.4-3.3c-0.2,1.3-0.5,2.5-1,3.7c0.4-1,0.8-2,1.3-3c-0.4,1-1,2-1.7,2.9
			c0.7-0.8,1.3-1.7,2-2.5c-0.5,0.6-1,1.1-1.5,1.5c0.8-0.7,1.7-1.3,2.5-2c-0.6,0.4-1.2,0.8-1.8,1.1c1-0.4,2-0.8,3-1.3
			c-0.6,0.2-1.2,0.4-1.8,0.5c1.1-0.1,2.2-0.3,3.3-0.4c-0.8,0.1-1.6,0.1-2.4,0c1.1,0.1,2.2,0.3,3.3,0.4c-0.9-0.1-1.8-0.4-2.7-0.7
			c1,0.4,2,0.8,3,1.3c-1-0.4-1.9-1-2.8-1.6c0.8,0.7,1.7,1.3,2.5,2c-1.5-1.2-2.8-2.6-4-4.2c0.7,0.8,1.3,1.7,2,2.5
			c-4.6-5.9-8.9-12-14.1-17.4c-5.2-5.5-11-10.3-17.1-14.8c-1.4-0.9-3-1.4-4.6-1.5c-1.7-0.4-3.3-0.3-5,0.2c-2.6,0.9-4.8,2.3-6.5,4.5
			c-3.7,4.8-3.6,12.1,1,16.4c0.7,0.6,1.3,1.3,1.9,2.1c-0.7-0.8-1.3-1.7-2-2.5c1,1.3,1.8,2.7,2.5,4.2c-0.4-1-0.8-2-1.3-3
			c0.6,1.5,1,3.1,1.3,4.7c-0.1-1.1-0.3-2.2-0.4-3.3c0.2,1.8,0.2,3.5,0,5.3c0.1-1.1,0.3-2.2,0.4-3.3c-0.2,1.5-0.6,3-1.2,4.4
			c0.4-1,0.8-2,1.3-3c-0.2,0.4-0.4,0.9-0.6,1.3c-1.8,3.7-2.2,7.3-0.6,11.1c1.4,3.2,4.4,6.6,8.1,7.2c4.2,0.7,8.4,1.4,12.3,3
			c-1-0.4-2-0.8-3-1.3c1.6,0.7,3.2,1.6,4.6,2.7c-0.8-0.7-1.7-1.3-2.5-2c1.1,0.9,2.1,1.9,3,3c-0.7-0.8-1.3-1.7-2-2.5
			c0.8,1,1.4,2.1,1.9,3.2c-0.4-1-0.8-2-1.3-3c0.4,1,0.7,2.1,0.9,3.2c-0.1-1.1-0.3-2.2-0.4-3.3c0.1,0.7,0.1,1.5,0,2.2
			c-0.2,3,1.6,6.7,3.7,8.8c2.2,2.2,5.7,3.8,8.8,3.7c3.2-0.1,6.6-1.2,8.8-3.7C95.2,155.1,96.2,152.3,96.5,148.8L96.5,148.8z"/>
	</g>
</g>
<g>
	<g>
		<path d="M65,98.6c-0.1-6.9,0.2-13.8,1.1-20.7c-0.1,1.1-0.3,2.2-0.4,3.3c0.2-1.3,0.4-2.5,0.6-3.8c0.5-1.7,0.6-3.3,0.2-5
			c-0.1-1.7-0.6-3.2-1.5-4.6c-1.5-2.6-4.5-5.1-7.5-5.7c-3.2-0.7-6.8-0.6-9.6,1.3c-2.6,1.7-5.2,4.3-5.7,7.5
			C40.6,80,39.8,89.3,40,98.6c0.1,3.2,1.3,6.5,3.7,8.8c2.2,2.2,5.7,3.8,8.8,3.7c3.2-0.1,6.6-1.2,8.8-3.7C63.5,105,65,102,65,98.6
			L65,98.6z"/>
	</g>
</g>
<g>
	<g>
		<path d="M68.5,69c0.2-1.3,0.6-2.6,1.1-3.8c-0.4,1-0.8,2-1.3,3c0.7-1.6,1.6-3,2.6-4.4c-0.7,0.8-1.3,1.7-2,2.5
			c1.5-1.9,3.2-3.5,5-4.9c-0.8,0.7-1.7,1.3-2.5,2c2.9-2.2,6.1-4,9.5-5.4c-1,0.4-2,0.8-3,1.3c4.9-2.1,10-3.5,15.3-4.2
			c-1.1,0.1-2.2,0.3-3.3,0.4c3.8-0.5,7.5-0.6,11.3-0.4c3.1,0.2,6.7-1.5,8.8-3.7c2.2-2.2,3.8-5.7,3.7-8.8c-0.1-3.2-1.2-6.6-3.7-8.8
			c-2.5-2.3-5.4-3.5-8.8-3.7c-5-0.3-9.9,0.2-14.9,0.9c-4,0.6-8,1.5-11.9,2.9c-4.3,1.5-8.6,3.3-12.5,5.8c-3.6,2.2-7.1,4.9-9.8,8.1
			c-3.6,4.2-6.7,9.1-7.7,14.7c-0.6,3.4-0.5,6.6,1.3,9.6c1.5,2.6,4.5,5.1,7.5,5.7c3.2,0.7,6.8,0.6,9.6-1.3
			C65.4,74.8,67.9,72.2,68.5,69L68.5,69z"/>
	</g>
</g>
<g>
	<g>
		<path d="M103.1,53.6c0.4,0,0.8,0.1,1.1,0.1c-1.1-0.1-2.2-0.3-3.3-0.4c1.9,0.3,3.7,0.8,5.5,1.5c-1-0.4-2-0.8-3-1.3
			c1.9,0.8,3.6,1.9,5.2,3.1c-0.8-0.7-1.7-1.3-2.5-2c1.8,1.4,3.4,3.1,4.8,4.9c-0.7-0.8-1.3-1.7-2-2.5c1.6,2.2,2.9,4.5,4,7
			c-0.4-1-0.8-2-1.3-3c1.4,3.5,2.3,7.1,2.8,10.8c-0.1-1.1-0.3-2.2-0.4-3.3c1,7.5,0.4,15.2-0.2,22.7c-0.2,3,1.6,6.7,3.7,8.8
			c2.2,2.2,5.7,3.8,8.8,3.7c3.2-0.1,6.6-1.2,8.8-3.7c2.3-2.6,3.4-5.4,3.7-8.8c0.8-10.2,1.3-20.4-1-30.5c-1.1-4.9-3.1-9.8-5.7-14.1
			c-3.1-5-7-8.9-11.8-12.3c-5.1-3.6-11.1-5.3-17.2-5.8c-3-0.2-6.7,1.6-8.8,3.7c-2.2,2.2-3.8,5.7-3.7,8.8c0.1,3.2,1.2,6.6,3.7,8.8
			C96.8,52.3,99.6,53.3,103.1,53.6L103.1,53.6z"/>
	</g>
</g>
<g>
	<g>
		<path d="M111,98c-0.5,1-1.2,2-1.9,2.9c0.7-0.8,1.3-1.7,2-2.5c-1.2,1.5-2.6,2.8-4.1,4c0.8-0.7,1.7-1.3,2.5-2
			c-2,1.5-4.1,2.7-6.3,3.7c1-0.4,2-0.8,3-1.3c-3.5,1.5-7.3,2.3-11.1,2.9c1.1-0.1,2.2-0.3,3.3-0.4c-3.7,0.5-7.4,0.7-11.2,0.9
			c-3.3,0.2-6.5,1.3-8.8,3.7c-2.2,2.2-3.8,5.7-3.7,8.8c0.1,3.2,1.2,6.6,3.7,8.8c2.4,2.2,5.5,3.8,8.8,3.7c3.7-0.2,7.5-0.4,11.2-0.9
			c4.6-0.6,9.2-1.2,13.5-2.9c2.3-0.9,4.7-1.9,6.8-3.1c2.2-1.2,4.1-2.7,6.1-4.3c3.1-2.5,5.8-5.8,7.7-9.3c1.6-2.9,2.2-6.4,1.3-9.6
			c-0.8-2.9-3-6-5.7-7.5c-2.9-1.5-6.4-2.3-9.6-1.3C115.4,93.3,112.5,95.2,111,98L111,98z"/>
	</g>
</g>
<g>
	<g>
		<path d="M81.7,104.4c-1.5-0.4-3-0.9-4.5-1.5c1,0.4,2,0.8,3,1.3c-2.6-1.1-5.1-2.6-7.3-4.3c0.8,0.7,1.7,1.3,2.5,2
			c-2.2-1.8-4.2-3.8-6-6c0.7,0.8,1.3,1.7,2,2.5c-1.1-1.5-2.2-3.1-3-4.8c-1.4-2.7-4.6-5-7.5-5.7c-3-0.8-7-0.5-9.6,1.3
			c-2.7,1.7-5,4.3-5.7,7.5c-0.8,3.4-0.3,6.5,1.3,9.6c1.5,3,3.6,5.6,5.7,8.2c1.5,1.8,3.2,3.5,5.1,5c2.6,2,5.2,4,8.1,5.5
			c3,1.5,6.2,2.8,9.5,3.7c3.2,0.8,6.8,0.4,9.6-1.3c2.6-1.5,5.1-4.5,5.7-7.5c0.7-3.2,0.6-6.8-1.3-9.6
			C87.4,107.4,84.9,105.2,81.7,104.4L81.7,104.4z"/>
	</g>
</g>
<g>
	<g>
		<path d="M100.1,57c0.1,0.1,0.2,0.2,0.3,0.2c-0.8-0.7-1.7-1.3-2.5-2c4,3.2,7.7,6.8,10.8,10.9c-0.7-0.8-1.3-1.7-2-2.5
			c3.2,4.2,5.9,8.7,7.9,13.6c-0.4-1-0.8-2-1.3-3c0.4,1,0.8,2,1.2,3c1.1,3.1,2.8,5.8,5.7,7.5c2.7,1.6,6.6,2.2,9.6,1.3
			c3-1,5.9-2.9,7.5-5.7c1.5-2.8,2.4-6.5,1.3-9.6c-2.4-6.5-5.4-12.8-9.5-18.5c-2.3-3.1-4.7-6.2-7.5-9c-2.8-2.9-5.9-5.3-9-7.7
			c-2.4-1.8-6.9-2-9.6-1.3c-2.9,0.8-6,3-7.5,5.7c-1.5,2.9-2.3,6.4-1.3,9.6c0.4,1,0.8,2,1.3,3C96.8,54.4,98.2,55.9,100.1,57L100.1,57
			z"/>
	</g>
</g>
<g>
	<g>
		<path d="M91.6,57.5c0.8,0,1.5,0,2.3,0.1c-0.4-0.1-0.9-0.1-1.3-0.2c1.1,0.2,2.2,0.5,3.2,0.9c-0.4-0.2-0.8-0.3-1.2-0.5
			c0.7,0.3,1.3,0.6,1.9,1c0.6,0.4,1.2,0.6,1.9,0.6c0.7,0.1,1.3,0.1,2-0.1c1.2-0.3,2.4-1.2,3-2.3c0.6-1.2,0.9-2.6,0.5-3.9
			c-0.4-1.3-1.2-2.3-2.3-3c-1.5-0.9-3.1-1.6-4.8-2.1c-1.7-0.5-3.5-0.7-5.2-0.6C90.3,47.6,89,48,88.1,49c-0.9,0.9-1.5,2.3-1.5,3.5
			c0.1,1.3,0.5,2.6,1.5,3.5C89,56.9,90.3,57.6,91.6,57.5L91.6,57.5z"/>
	</g>
</g>
<g>
	<g>
		<path d="M86.5,52.6c-5.2,1-10.2,2.9-14.8,5.4c-1.1,0.6-1.6,2.3-0.9,3.4c0.7,1.2,2.2,1.6,3.4,0.9c2.3-1.3,4.2-2.1,6.4-2.9
			c2.3-0.8,4.7-1.5,7.2-2c1.3-0.3,2.1-1.9,1.7-3.1C89.1,53,87.8,52.4,86.5,52.6L86.5,52.6z"/>
	</g>
</g>
<g>
	<g>
		<path d="M73.5,57.7c-3.6,2-6.7,5.1-8.7,8.8c-0.6,1.2-0.3,2.8,0.9,3.4c1.2,0.6,2.8,0.3,3.4-0.9c0.5-0.9,1.1-1.8,1.7-2.7
			c-0.1,0.2-0.3,0.3-0.4,0.5c1-1.3,2.2-2.5,3.6-3.6c-0.2,0.1-0.3,0.3-0.5,0.4c0.8-0.6,1.6-1.2,2.5-1.7c1.1-0.6,1.6-2.3,0.9-3.4
			C76.2,57.4,74.8,57,73.5,57.7L73.5,57.7z"/>
	</g>
</g>
<g>
	<g>
		<path d="M61.7,85.3c-0.4,3.5,0.5,7.2,2.2,10.3c0.6,1.1,2,1.5,3.1,1c1.1-0.5,1.9-1.8,1.4-2.9c-0.6-1.6-1.1-3.1-1.7-4.7
			c-0.4-1.2-1.7-2.2-3.1-1.7c-1.2,0.4-2.2,1.8-1.7,3.1c0.6,1.6,1.1,3.1,1.7,4.7c1.5-0.6,3-1.3,4.6-1.9c-0.2-0.3-0.4-0.7-0.5-1
			c-0.1-0.1-0.1-0.4-0.2-0.5c0.1,0.4,0.2,0.4,0.1,0.2c0-0.1-0.1-0.2-0.1-0.3c-0.3-0.7-0.5-1.4-0.6-2.1c0-0.2-0.1-0.4-0.1-0.5
			c0-0.1,0-0.2,0-0.2c0-0.3,0-0.2,0,0.2c0-0.3-0.1-0.7-0.1-1.1c0-0.8,0-1.6,0.1-2.3c0.1-0.6-0.3-1.4-0.7-1.8
			c-0.4-0.4-1.1-0.8-1.8-0.7c-0.6,0-1.3,0.2-1.8,0.7C62,84,61.8,84.6,61.7,85.3L61.7,85.3z"/>
	</g>
</g>
<g>
	<g>
		<path d="M65.8,74.6c3.2,0,3.2-5,0-5C62.5,69.6,62.5,74.6,65.8,74.6L65.8,74.6z"/>
	</g>
</g>
<g>
	<g>
		<path d="M111.1,95.4c0.2-0.3,0,0-0.1,0.2c-0.1,0.2-0.2,0.3-0.4,0.5c-0.2,0.3-0.5,0.5-0.7,0.8c-0.5,0.6-1,1.1-1.5,1.7
			c-1.1,1.1-2.2,2.2-3.4,3.1c-0.3,0.2-0.6,0.5-0.8,0.7c0.3-0.2,0,0-0.2,0.1c-0.2,0.1-0.3,0.2-0.5,0.4c-0.6,0.4-1.2,0.9-1.9,1.3
			c-1.3,0.8-2.7,1.6-4,2.3c-1.2,0.6-1.6,2.3-0.9,3.4c0.8,1.2,2.2,1.5,3.4,0.9c6.1-3,11.2-7.4,15.3-12.8c0.8-1,0.2-2.8-0.9-3.4
			C113.2,93.8,112,94.3,111.1,95.4L111.1,95.4z"/>
	</g>
</g>
<g>
	<g>
		<path d="M102.1,101.4c-4.6,2.3-9.8,3.5-14.9,3.6c-1.3,0-2.6,1.1-2.5,2.5c0.1,1.3,1.1,2.5,2.5,2.5c6.1-0.1,12-1.6,17.4-4.3
			c1.2-0.6,1.5-2.3,0.9-3.4C104.8,101.1,103.3,100.8,102.1,101.4L102.1,101.4z"/>
	</g>
</g>
<g>
	<g>
		<path d="M88.4,105.2c-1.8-1.1-3.9-1.5-5.9-2c-2.1-0.5-4.2-1-6.3-1.5c-1.3-0.3-2.8,0.4-3.1,1.7c-0.3,1.3,0.4,2.8,1.7,3.1
			c2,0.5,4.1,0.9,6.1,1.4c0.9,0.2,1.9,0.4,2.8,0.7c0.4,0.1,0.9,0.3,1.3,0.4c0.6,0.2-0.4-0.2,0.1,0.1c0.2,0.1,0.5,0.2,0.7,0.4
			c1.1,0.7,2.8,0.3,3.4-0.9C89.9,107.4,89.6,105.9,88.4,105.2L88.4,105.2z"/>
	</g>
</g>
<g>
	<g>
		<path d="M77.4,101.4C77.7,101.4,77.8,101.4,77.4,101.4c-0.1,0-0.3-0.1-0.4-0.1c-0.1,0-0.2-0.1-0.3-0.1c-0.4-0.1,0.3,0.2,0,0
			c-0.5-0.3-1-0.5-1.4-0.8c-0.1-0.1-0.3-0.2-0.4-0.3c0.2,0.2,0.2,0.2,0,0c-0.2-0.2-0.4-0.4-0.6-0.5c-0.5-0.4-0.9-0.8-1.4-1.3
			c-0.9-0.8-1.7-1.7-2.4-2.6c-0.2-0.2-0.4-0.4-0.6-0.7c-0.2-0.2-0.2-0.3,0,0c-0.1-0.1-0.2-0.2-0.2-0.3c-0.4-0.5-0.8-1-1.1-1.6
			c-1.3,1-2.6,2-3.9,3c0.6,0.6,1.3,1.1,1.9,1.7c1,0.9,2.6,1,3.5,0c0.9-0.9,1-2.6,0-3.5c-0.6-0.6-1.3-1.1-1.9-1.7
			c-0.9-0.8-2.3-1-3.3-0.2c-0.9,0.7-1.3,2.2-0.6,3.2c1.6,2.4,3.4,4.6,5.4,6.5c1,1,2.1,1.9,3.3,2.7c1.4,0.9,2.8,1.4,4.5,1.6
			c1.3,0.1,2.6-1.3,2.5-2.5C79.8,102.4,78.8,101.5,77.4,101.4L77.4,101.4z"/>
	</g>
</g>
<g>
	<g>
		<path d="M92.3,103.8c-1.2,0-2.3-0.1-3.5-0.1c-0.6,0-1.3,0.3-1.8,0.7c-0.2,0.2-0.4,0.5-0.5,0.8c-0.2,0.3-0.2,0.6-0.2,1
			c0,0.6,0.2,1.3,0.7,1.8c0.5,0.5,1.1,0.7,1.8,0.7c1.2,0,2.3,0.1,3.5,0.1c0.6,0,1.3-0.3,1.8-0.7c0.2-0.2,0.4-0.5,0.5-0.8
			c0.2-0.3,0.2-0.6,0.2-1c0-0.6-0.2-1.3-0.7-1.8C93.6,104.1,93,103.9,92.3,103.8L92.3,103.8z"/>
	</g>
</g>
<g>
	<g>
		<path d="M107.5,98.7c-3.6,1.3-7.2,2.8-10.7,4.3c-1.1,0.5-1.5,2.1-1,3.1c0.5,1.2,1.7,1.7,2.9,1.4c5.2-0.9,9.7-4,12.7-8.2
			c0.6-0.9,0.4-2.3-0.4-3c-0.8-0.7-2.1-1.1-3-0.4c-2.7,1.9-5.3,3.9-8,5.8c-1.1,0.8-1.7,2.2-0.9,3.4c0.8,1.2,2.2,1.5,3.4,0.9
			c2.5-1.2,4.7-2.9,6.4-5.1c1.9-2.4,3.6-5,5.3-7.5c0.7-1.1,0.2-2.8-0.9-3.4c-1.3-0.7-2.6-0.3-3.4,0.9c-0.8,1.2-1.7,2.5-2.5,3.7
			c-0.3,0.5-0.7,1-1,1.5c-0.2,0.3-0.4,0.6-0.6,0.8c-0.1,0.1-0.2,0.3-0.3,0.4c0.1-0.2,0.1-0.1-0.1,0.1c-0.8,0.9-1.6,1.8-2.5,2.5
			c-0.2,0.2-0.2,0.2-0.1,0c-0.1,0.1-0.3,0.2-0.4,0.3c-0.3,0.2-0.5,0.4-0.8,0.5c-0.5,0.3-1.1,0.6-1.7,0.9c0.8,1.4,1.7,2.9,2.5,4.3
			c2.7-1.9,5.3-3.9,8-5.8c-1.1-1.1-2.3-2.3-3.4-3.4c-0.1,0.1-0.6,0.8-0.3,0.4c-0.2,0.2-0.4,0.4-0.6,0.7c-0.3,0.4-0.7,0.7-1.1,1.1
			c-0.2,0.2-0.4,0.4-0.6,0.6c-0.1,0.1-0.8,0.6-0.3,0.3c-0.4,0.3-0.8,0.6-1.3,0.9c-0.4,0.3-0.9,0.5-1.3,0.7c-0.3,0.1-0.5,0.3-0.8,0.4
			c-0.3,0.1-0.3,0.1,0,0c-0.1,0.1-0.3,0.1-0.4,0.2c-1,0.4-2.1,0.6-3.1,0.8c0.6,1.5,1.3,3,1.9,4.6c0.4-0.2,0.8-0.4,1.2-0.5
			c0.2-0.1,0.4-0.2,0.6-0.3c0,0,0.5-0.2,0.3-0.1c0.8-0.3,1.6-0.7,2.4-1c1.6-0.7,3.3-1.3,4.9-1.9c1.2-0.5,2.2-1.7,1.7-3.1
			C110.2,99.3,108.8,98.2,107.5,98.7L107.5,98.7z"/>
	</g>
</g>
<g>
	<g>
		<path d="M115.3,92.3c0.7-2.8,1.5-5.5,2.2-8.3c0.3-1.3-0.4-2.8-1.7-3.1c-1.3-0.3-2.7,0.4-3.1,1.7c-0.7,2.8-1.5,5.5-2.2,8.3
			c-0.3,1.3,0.4,2.8,1.7,3.1C113.6,94.4,115,93.7,115.3,92.3L115.3,92.3z"/>
	</g>
</g>
<g>
	<g>
		<path d="M112.6,84c-0.1-1.3,0.4-2.1,1.5-2.2c0.8,1.1,1.6,2.1,2.4,3.2c1.4-5,0.9-10.4-1.3-15.1c-0.5-1.1-2.1-1.5-3.1-1
			c-1.1,0.5-1.8,1.7-1.4,2.9c0.5,1.7,1,3.4,1.5,5.2c1.5-0.6,3-1.3,4.6-1.9c-0.6-1.3-1.1-2.5-1.7-3.8c-0.4-1-1.9-1.5-2.8-1.1
			c-1,0.3-2,1.3-1.8,2.4c0.2,1.5,0.4,3,0.6,4.5c0.2,1.2,0.8,2.3,2.2,2.5c1.3,0.2,2.3-0.6,2.7-1.8c0.9-2.1,0.6-4.6-0.6-6.5
			c-0.7-1.1-2.3-1.6-3.4-0.9c-1.1,0.7-1.6,2.2-0.9,3.4c0,0,0.3,0.6,0.2,0.3c-0.2-0.3,0.1,0.2,0.1,0.3c0.1,0.2,0.1,0.3,0.1,0.5
			c0.1,0.3,0-0.6,0,0.1c0,0.1,0,0.3,0,0.4c0,0-0.1,0.6,0,0.3c0.1-0.4-0.1,0.2-0.1,0.3c-0.1,0.2-0.1,0.4-0.2,0.6
			c1.6,0.2,3.3,0.4,4.9,0.7c-0.2-1.5-0.4-3-0.6-4.5c-1.6,0.4-3.1,0.8-4.7,1.3c0.6,1.3,1.1,2.5,1.7,3.8c0.5,1.1,2.1,1.5,3.1,1
			c1.1-0.5,1.8-1.7,1.4-2.9c-0.5-1.7-1-3.4-1.5-5.2c-1.5,0.6-3,1.3-4.6,1.9c0.1,0.1,0.1,0.3,0.2,0.4c-0.1-0.2-0.1-0.2,0,0
			c0.1,0.2,0.2,0.4,0.2,0.6c0.2,0.5,0.3,1,0.5,1.5c0.1,0.5,0.2,1,0.3,1.6c0,0.2,0,0.3,0.1,0.5c0-0.2,0-0.3,0-0.1
			c0,0.3,0.1,0.5,0.1,0.8c0.1,1.1,0.1,2.1,0,3.2c0,0.1-0.1,0.8,0,0.2c0,0.3-0.1,0.6-0.2,0.9c-0.1,0.5-0.2,1-0.4,1.6
			c-0.5,1.6,0.8,3.1,2.4,3.2c1,0,1.9-0.4,2.5-1.1c0.8-0.9,1-1.9,0.8-3.1c-0.2-1.3-1.9-2.1-3.1-1.7C113,81.3,112.4,82.6,112.6,84
			L112.6,84z"/>
	</g>
</g>
<g>
	<g>
		<path d="M114.5,70.2c-1.7-6.2-5.7-11.6-11.1-15.1c-2.5-1.6-4.9,1.9-3,3.9c2.7,2.9,5.3,5.9,8,8.8c1.2-1.2,2.4-2.4,3.5-3.5
			c-5.9-5.1-12.1-10.1-20.1-10.7c-1.3-0.1-2.5,1.2-2.5,2.5c0,1.4,1.1,2.4,2.5,2.5c6.5,0.5,11.8,5.1,16.5,9.2
			c2.4,2.1,5.7-1.1,3.5-3.5c-2.7-2.9-5.3-5.9-8-8.8c-1,1.3-2,2.6-3,3.9c4.4,2.7,7.5,7.1,8.8,12.1C110.5,74.6,115.4,73.3,114.5,70.2
			L114.5,70.2z"/>
	</g>
</g>
<g>
	<g>
		<path d="M92.8,53.8c-2.7,0-5.5,0-8.2,0c-1.3,0-2.6,1.1-2.5,2.5c0.1,1.4,1.1,2.5,2.5,2.5c2.7,0,5.5,0,8.2,0c1.3,0,2.6-1.1,2.5-2.5
			C95.2,54.9,94.2,53.8,92.8,53.8L92.8,53.8z"/>
	</g>
</g>
</svg>
